<?xml version="1.0" standalone="no"?>
<!DOCTYPE svg PUBLIC "-//W3C//DTD SVG 20010904//EN"
 "http://www.w3.org/TR/2001/REC-SVG-20010904/DTD/svg10.dtd">
<svg version="1.0" xmlns="http://www.w3.org/2000/svg"
 width="650.000000pt" height="650.000000pt" viewBox="0 0 650.000000 650.000000"
 preserveAspectRatio="xMidYMid meet">
<metadata>
Created by potrace 1.14, written by Peter Selinger 2001-2017
</metadata>
<g transform="translate(0.000000,650.000000) scale(0.100000,-0.100000)"
fill="#000000" stroke="none">
<path d="M3247 6414 c-1 -1 -51 -4 -112 -8 -60 -3 -121 -8 -135 -10 -14 -3
-47 -7 -75 -11 -60 -7 -171 -26 -235 -40 -14 -4 -36 -8 -50 -11 -47 -9 -237
-64 -326 -95 -866 -299 -1569 -979 -1901 -1838 -60 -156 -125 -380 -147 -506
-3 -16 -10 -53 -15 -82 -6 -29 -13 -74 -16 -100 -4 -26 -8 -59 -11 -73 -29
-178 -23 -597 11 -825 3 -16 7 -48 11 -70 25 -170 119 -507 180 -642 8 -17 14
-34 14 -37 0 -3 22 -54 50 -112 27 -58 50 -107 50 -109 0 -14 202 -349 219
-365 3 -3 22 -27 41 -55 19 -27 39 -55 45 -62 12 -14 18 -22 65 -83 67 -87
254 -281 360 -375 231 -205 513 -385 810 -518 258 -116 594 -208 884 -243 213
-25 650 -25 781 1 11 2 40 7 65 10 42 5 58 7 120 20 14 2 36 6 50 9 54 9 270
67 360 96 580 192 1130 581 1494 1057 106 138 286 415 286 439 0 3 9 18 19 32
10 15 19 29 19 32 0 3 19 46 42 95 108 232 206 532 236 724 3 20 7 38 9 41 2
3 8 42 15 88 6 45 13 96 15 114 18 130 24 443 12 608 -43 569 -236 1100 -574
1582 -42 60 -85 118 -97 131 -11 13 -39 45 -60 73 -117 147 -402 407 -596 545
-340 242 -800 440 -1190 512 -97 18 -151 27 -190 32 -25 3 -61 7 -80 10 -94
12 -443 27 -453 19z"/>
</g>
</svg>
